<?xml version="1.0" encoding="utf-8"?>
<!-- Generator: Adobe Illustrator 22.1.0, SVG Export Plug-In . SVG Version: 6.00 Build 0)  -->
<svg version="1.1" id="Layer_1" xmlns="http://www.w3.org/2000/svg" xmlns:xlink="http://www.w3.org/1999/xlink" x="0px" y="0px"
	 viewBox="0 0 102 102" style="enable-background:new 0 0 102 102;" xml:space="preserve">
<style type="text/css">
	.st0{fill:#FFFFFF;}
	.st1{fill:#007129;}
	.st2{fill:#040104;}
	.st3{fill:#FF0000;}
	.st4{fill:none;stroke:#FFFFFF;stroke-width:2;}
</style>
<g>
	<path class="st0" d="M24.8,70.7H97c2.6-6,4-12.7,4-19.7s-1.4-13.7-4-19.7H24.8V70.7z"/>
	<path class="st1" d="M51,1c-9.6,0-18.6,2.7-26.2,7.4v25.3h73.2C90.9,14.6,72.5,1,51,1z"/>
	<path class="st2" d="M24.8,68.3v25.3c7.6,4.7,16.6,7.4,26.2,7.4c21.5,0,39.9-13.6,46.9-32.7H24.8z"/>
	<path class="st3" d="M29.1,6C12.5,14.1,1,31.2,1,51s11.5,36.9,28.1,45V6z"/>
</g>
<title>Cambodia</title>
<desc>Created with Sketch.</desc>
<circle id="Oval-2-Copy" class="st4" cx="51" cy="51" r="50"/>
</svg>
